<svg xmlns="http://www.w3.org/2000/svg" viewBox="0 0 100 100" width="100" height="100">
  <rect width="100" height="100" rx="20" fill="#0a0a0a"/>
  <g stroke="#c8a24a" fill="none" stroke-linejoin="round">
    <path d="M50 12 L80 29 L80 63 L50 80 L20 63 L20 29 Z" stroke-width="3"/>
    <path d="M30 58 L30 49 Q30 47 32 47 L41 47 L41 39 L61 39 L61 58 Z" stroke-width="3"/>
    <rect x="48" y="33" width="16" height="9" stroke-width="2.4"/>
    <rect x="46" y="44" width="18" height="10" stroke-width="2.4"/>
    <circle cx="37" cy="61" r="4.3" stroke-width="3"/>
    <circle cx="54" cy="61" r="4.3" stroke-width="3"/>
  </g>
  <g stroke="#c8a24a" stroke-width="1.3" opacity="0.85">
    <line x1="53" y1="33.5" x2="53" y2="41.5"/>
    <line x1="59" y1="33.5" x2="59" y2="41.5"/>
    <line x1="52" y1="44.5" x2="52" y2="53.5"/>
    <line x1="58" y1="44.5" x2="58" y2="53.5"/>
  </g>
  <path d="M33 43 L33 39 L38 39 L38 43 Z" fill="#c8a24a"/>
</svg>
