<svg xmlns="http://www.w3.org/2000/svg" viewBox="0 0 64 64" width="64" height="64">
  <defs>
    <linearGradient id="bg" x1="0" y1="0" x2="1" y2="1">
      <stop offset="0" stop-color="#1a1c20"/>
      <stop offset="1" stop-color="#070809"/>
    </linearGradient>
    <linearGradient id="beam" x1="1" y1="0" x2="0" y2="0">
      <stop offset="0" stop-color="#22d3ee" stop-opacity="0.95"/>
      <stop offset="1" stop-color="#22d3ee" stop-opacity="0"/>
    </linearGradient>
  </defs>
  <rect width="64" height="64" rx="15" fill="url(#bg)"/>
  <rect x="1.5" y="1.5" width="61" height="61" rx="13.5" fill="none" stroke="#e11d2b" stroke-opacity="0.55" stroke-width="2"/>
  <!-- headlight beam -->
  <path d="M50 28 L62 22 L62 38 L50 34 Z" fill="url(#beam)"/>
  <!-- pickup silhouette -->
  <path d="M8 38 L13 28 Q14 26 17 26 L28 26 L34 20 Q35 19 38 19 L44 19 Q46 19 47 21 L50 27 L52 38 Z"
        fill="#e11d2b"/>
  <rect x="30" y="27" width="18" height="11" fill="#0c0d0f"/>
  <path d="M34 26 L37 21 L44 21 L46 26 Z" fill="#22d3ee" fill-opacity="0.85"/>
  <!-- headlight dot -->
  <circle cx="50" cy="31" r="2.4" fill="#bff7ff"/>
  <!-- wheels -->
  <circle cx="20" cy="40" r="6.5" fill="#0c0d0f" stroke="#3a3d44" stroke-width="2"/>
  <circle cx="20" cy="40" r="2.4" fill="#e11d2b"/>
  <circle cx="42" cy="40" r="6.5" fill="#0c0d0f" stroke="#3a3d44" stroke-width="2"/>
  <circle cx="42" cy="40" r="2.4" fill="#e11d2b"/>
</svg>
